<svg xmlns="http://www.w3.org/2000/svg" class="img-fluid" id="outputsvg" style=".769231, 0, 0, 0.769231, 0, 0);transform-origin: 50% 50%;cursor: move;max-height: 356.8px;transition: transform 200ms ease-in-out 0s;" width="518" height="206" viewBox="0 0 5180 2060"><g id="l6DSD29CEdMwoazell3vdzB" fill="rgb(255,255,255)" style="transform: none;"><g><path id="pSlxlTToq" d="M4522 1964 c-12 -8 -22 -26 -22 -39 0 -13 36 -103 80 -201 69 -151 79 -181 71 -203 -5 -14 -87 -186 -181 -381 -95 -195 -172 -366 -172 -379 -1 -48 77 -71 105 -31 7 11 83 166 167 345 85 178 156 323 158 320 2 -2 68 -144 146 -317 182 -399 170 -378 204 -378 43 0 75 27 69 59 -6 30 -532 1188 -549 1208 -14 18 -49 16 -76 -3z"/><path id="p19mBpPCQE" d="M366 1578 c-9 -12 -16 -32 -16 -43 1 -27 482 -1170 503 -1195 24 -28 73 -26 92 4 17 25 505 1182 505 1196 0 4 -9 19 -21 34 -24 30 -69 35 -90 10 -8 -9 -39 -75 -69 -147 l-56 -132 -318 0 -318 0 -54 135 c-31 74 -63 141 -72 148 -26 20 -69 15 -86 -10z m794 -397 c0 -12 -250 -624 -259 -633 -5 -6 -204 461 -268 628 -4 12 41 14 261 14 159 0 266 -4 266 -9z"/><path id="pPxg7XZFL" d="M1885 1581 c-51 -24 -88 -63 -117 -126 -23 -50 -23 -51 -26 -572 -3 -514 -3 -522 18 -543 26 -26 64 -26 90 0 19 19 20 33 20 519 0 346 3 508 11 532 19 56 47 79 95 79 53 0 87 25 87 65 0 62 -93 86 -178 46z"/><path id="p8jCFkpBu" d="M2478 1589 c-105 -24 -225 -114 -281 -209 -72 -124 -75 -316 -6 -452 28 -54 103 -134 157 -165 179 -105 399 -77 540 67 l32 34 0 -256 c0 -234 1 -256 18 -271 24 -22 68 -22 87 1 50 57 195 264 190 272 -3 6 -25 23 -49 39 l-43 30 -34 -45 -34 -46 -6 324 c-4 220 -10 336 -18 363 -49 155 -168 271 -316 309 -64 17 -177 19 -237 5z m271 -144 c60 -33 109 -86 143 -154 18 -38 22 -63 22 -141 0 -83 -3 -102 -27 -152 -53 -109 -146 -169 -273 -176 -117 -6 -172 14 -250 92 -72 72 -97 133 -97 236 0 103 25 164 97 235 80 79 124 96 241 92 78 -2 97 -7 144 -32z"/><path id="pEmITRRzn" d="M3387 1582 c-15 -17 -17 -61 -17 -434 0 -389 1 -416 18 -431 25 -23 65 -21 88 4 18 20 19 44 22 393 3 389 0 446 -24 471 -21 21 -67 19 -87 -3z"/><path id="p94UfBtyC" d="M3880 1580 c-19 -19 -20 -33 -20 -375 l0 -355 -63 0 c-69 0 -97 -17 -97 -57 0 -36 31 -53 98 -53 l62 0 0 -45 c0 -206 122 -356 301 -372 68 -7 109 12 109 51 0 34 -30 55 -95 66 -32 5 -73 20 -92 32 -48 33 -85 112 -91 198 l-5 70 111 0 c119 0 142 9 142 53 0 46 -13 52 -132 57 l-113 5 -5 358 c-5 340 -6 359 -24 373 -28 20 -63 17 -86 -6z"/><path id="pBQRHGixY" d="M360 1002 c-30 -15 -71 -34 -90 -41 -19 -8 -45 -23 -57 -34 -32 -29 -33 -25 106 -321 28 -59 51 -111 51 -115 0 -19 44 -51 70 -51 20 0 31 -6 35 -20 14 -44 88 -140 138 -177 28 -22 81 -51 117 -66 58 -23 77 -26 171 -23 100 2 110 4 180 39 41 21 88 50 104 65 38 36 91 111 110 156 14 32 16 34 49 26 44 -10 53 -1 99 100 84 183 119 258 139 298 33 65 20 82 -108 142 -59 28 -113 50 -121 50 -23 0 -41 -24 -79 -107 -20 -43 -62 -134 -95 -203 -32 -69 -59 -134 -59 -146 0 -25 21 -45 73 -69 43 -20 43 -32 0 -100 -125 -199 -402 -228 -566 -60 -37 37 -77 102 -77 124 0 6 27 25 61 41 60 31 61 32 56 68 -5 44 -169 398 -199 430 -27 28 -40 27 -108 -6z"/><path id="pgIkyJu8w" d="M3369 511 c-20 -20 -29 -39 -29 -61 0 -44 47 -90 93 -90 48 0 87 38 87 85 0 48 -45 95 -90 95 -22 0 -41 -9 -61 -29z"/></g></g></svg>
