<svg class="img-fluid" id="outputsvg" xmlns="http://www.w3.org/2000/svg" style="transform: matrix(0.769231, 0, 0, 0.769231, 0, 0); transform-origin: 50% 50%; cursor: move; max-height: 356.8px; transition: transform 200ms ease-in-out 0s;" width="518" height="206" viewBox="0 0 5180 2060"><g id="l1jeKe1hio99l2S1F89dA5a" fill="none" stroke="rgb(0,0,0)" stroke-width="10" style="transform: none;"><g><path id="pMlSdPuh4" d="M0 1030 l0 -1030 2590 0 2590 0 0 1030 0 1030 -2590 0 -2590 0 0 -1030z m4842 316 c147 -324 265 -592 262 -597 -10 -17 -31 -9 -44 19 -7 15 -77 169 -156 342 l-144 315 -32 3 -33 3 -160 -337 c-87 -185 -165 -338 -173 -341 -7 -3 -17 -2 -22 3 -4 5 73 176 171 379 132 273 179 380 179 407 0 24 -25 92 -76 203 -70 155 -83 203 -52 193 7 -3 133 -269 280 -592z m-2833 207 l24 -16 -23 -19 c-14 -11 -38 -18 -64 -18 -48 0 -76 -23 -95 -79 -8 -24 -11 -185 -11 -528 0 -495 -2 -533 -35 -533 -34 0 -36 35 -33 528 3 484 3 487 26 537 29 63 66 102 117 126 50 23 64 23 94 2z m676 1 c159 -41 280 -168 320 -335 11 -49 15 -132 15 -361 l0 -298 33 0 c25 0 39 7 55 30 20 27 52 33 52 9 0 -5 -33 -53 -72 -107 -40 -55 -78 -108 -84 -118 -10 -15 -16 -17 -30 -8 -18 10 -19 30 -22 268 l-2 256 -33 0 c-25 0 -42 -11 -77 -46 -84 -84 -213 -128 -316 -106 -180 37 -313 171 -346 350 -31 164 68 349 230 431 104 53 176 62 277 35z m-2194 -139 l58 -140 347 0 348 0 56 132 c61 148 73 165 95 143 12 -13 -17 -88 -224 -580 -130 -311 -243 -575 -250 -588 -18 -33 -37 -27 -59 21 -84 179 -473 1130 -468 1143 15 40 41 6 97 -131z m2969 105 c7 -27 10 -162 8 -395 -3 -318 -5 -356 -20 -371 -14 -14 -20 -15 -32 -4 -14 11 -16 62 -16 399 0 393 2 411 37 411 7 0 17 -18 23 -40z m487 28 c4 -7 10 -173 13 -368 l5 -355 95 -2 c113 -3 140 -9 140 -27 0 -22 -24 -26 -137 -26 l-105 0 4 -98 c6 -165 60 -242 183 -262 33 -5 65 -16 74 -24 12 -13 11 -16 -11 -27 -20 -9 -37 -8 -80 5 -140 40 -222 157 -235 333 l-6 73 -61 0 c-66 0 -94 14 -75 37 7 8 35 13 75 13 l64 0 0 351 c0 222 4 357 10 370 12 22 35 25 47 7z m-3432 -716 c32 -70 73 -157 92 -194 l33 -68 -60 -30 c-59 -30 -60 -31 -61 -73 0 -37 -2 -40 -11 -19 -8 15 -20 22 -39 22 -26 0 -69 32 -69 51 0 4 -26 63 -58 131 -32 67 -70 148 -84 178 -23 50 -24 57 -10 73 8 9 20 17 26 18 6 0 43 15 81 33 62 30 72 32 86 19 9 -8 43 -71 74 -141z m1032 65 c13 -13 13 -13 -80 -212 -105 -224 -96 -210 -144 -207 -40 3 -43 1 -56 -30 l-14 -33 5 51 4 51 -45 21 c-25 12 -49 27 -53 33 -3 6 18 64 49 128 30 64 72 152 92 196 20 44 41 83 47 86 11 7 174 -64 195 -84z m1922 -423 c23 -29 19 -46 -14 -68 -21 -14 -25 -14 -49 5 -30 24 -33 45 -9 71 23 25 48 23 72 -8z m-2584 -269 c44 0 96 3 115 8 l35 7 -24 -17 c-33 -23 -191 -23 -241 0 l-35 16 35 -7 c19 -4 71 -7 115 -7z"></path><path id="pn5en8ACD" d="M2440 1492 c-68 -26 -162 -123 -185 -192 -26 -75 -26 -225 0 -300 25 -76 119 -170 193 -194 79 -26 260 -19 320 12 66 35 119 88 149 150 26 53 28 65 28 182 0 110 -3 131 -23 171 -34 68 -83 121 -143 154 -50 28 -62 30 -174 32 -94 2 -130 -1 -165 -15z"></path><path id="pyjJbN2J0" d="M600 1188 c0 -20 54 -166 132 -356 l133 -323 34 3 34 3 128 310 c92 224 128 322 128 353 l1 42 -295 0 -295 0 0 -32z"></path></g></g><g id="l6DSD29CEdMwoazell3vdzB" fill="rgb(255,255,255)" style="transform: none;"><g><path id="pSlxlTToq" d="M4522 1964 c-12 -8 -22 -26 -22 -39 0 -13 36 -103 80 -201 69 -151 79 -181 71 -203 -5 -14 -87 -186 -181 -381 -95 -195 -172 -366 -172 -379 -1 -48 77 -71 105 -31 7 11 83 166 167 345 85 178 156 323 158 320 2 -2 68 -144 146 -317 182 -399 170 -378 204 -378 43 0 75 27 69 59 -6 30 -532 1188 -549 1208 -14 18 -49 16 -76 -3z"></path><path id="p19mBpPCQE" d="M366 1578 c-9 -12 -16 -32 -16 -43 1 -27 482 -1170 503 -1195 24 -28 73 -26 92 4 17 25 505 1182 505 1196 0 4 -9 19 -21 34 -24 30 -69 35 -90 10 -8 -9 -39 -75 -69 -147 l-56 -132 -318 0 -318 0 -54 135 c-31 74 -63 141 -72 148 -26 20 -69 15 -86 -10z m794 -397 c0 -12 -250 -624 -259 -633 -5 -6 -204 461 -268 628 -4 12 41 14 261 14 159 0 266 -4 266 -9z"></path><path id="pPxg7XZFL" d="M1885 1581 c-51 -24 -88 -63 -117 -126 -23 -50 -23 -51 -26 -572 -3 -514 -3 -522 18 -543 26 -26 64 -26 90 0 19 19 20 33 20 519 0 346 3 508 11 532 19 56 47 79 95 79 53 0 87 25 87 65 0 62 -93 86 -178 46z"></path><path id="p8jCFkpBu" d="M2478 1589 c-105 -24 -225 -114 -281 -209 -72 -124 -75 -316 -6 -452 28 -54 103 -134 157 -165 179 -105 399 -77 540 67 l32 34 0 -256 c0 -234 1 -256 18 -271 24 -22 68 -22 87 1 50 57 195 264 190 272 -3 6 -25 23 -49 39 l-43 30 -34 -45 -34 -46 -6 324 c-4 220 -10 336 -18 363 -49 155 -168 271 -316 309 -64 17 -177 19 -237 5z m271 -144 c60 -33 109 -86 143 -154 18 -38 22 -63 22 -141 0 -83 -3 -102 -27 -152 -53 -109 -146 -169 -273 -176 -117 -6 -172 14 -250 92 -72 72 -97 133 -97 236 0 103 25 164 97 235 80 79 124 96 241 92 78 -2 97 -7 144 -32z"></path><path id="pEmITRRzn" d="M3387 1582 c-15 -17 -17 -61 -17 -434 0 -389 1 -416 18 -431 25 -23 65 -21 88 4 18 20 19 44 22 393 3 389 0 446 -24 471 -21 21 -67 19 -87 -3z"></path><path id="p94UfBtyC" d="M3880 1580 c-19 -19 -20 -33 -20 -375 l0 -355 -63 0 c-69 0 -97 -17 -97 -57 0 -36 31 -53 98 -53 l62 0 0 -45 c0 -206 122 -356 301 -372 68 -7 109 12 109 51 0 34 -30 55 -95 66 -32 5 -73 20 -92 32 -48 33 -85 112 -91 198 l-5 70 111 0 c119 0 142 9 142 53 0 46 -13 52 -132 57 l-113 5 -5 358 c-5 340 -6 359 -24 373 -28 20 -63 17 -86 -6z"></path><path id="pBQRHGixY" d="M360 1002 c-30 -15 -71 -34 -90 -41 -19 -8 -45 -23 -57 -34 -32 -29 -33 -25 106 -321 28 -59 51 -111 51 -115 0 -19 44 -51 70 -51 20 0 31 -6 35 -20 14 -44 88 -140 138 -177 28 -22 81 -51 117 -66 58 -23 77 -26 171 -23 100 2 110 4 180 39 41 21 88 50 104 65 38 36 91 111 110 156 14 32 16 34 49 26 44 -10 53 -1 99 100 84 183 119 258 139 298 33 65 20 82 -108 142 -59 28 -113 50 -121 50 -23 0 -41 -24 -79 -107 -20 -43 -62 -134 -95 -203 -32 -69 -59 -134 -59 -146 0 -25 21 -45 73 -69 43 -20 43 -32 0 -100 -125 -199 -402 -228 -566 -60 -37 37 -77 102 -77 124 0 6 27 25 61 41 60 31 61 32 56 68 -5 44 -169 398 -199 430 -27 28 -40 27 -108 -6z"></path><path id="pgIkyJu8w" d="M3369 511 c-20 -20 -29 -39 -29 -61 0 -44 47 -90 93 -90 48 0 87 38 87 85 0 48 -45 95 -90 95 -22 0 -41 -9 -61 -29z"></path></g></g></svg>
